<svg width="0" height="0" class="hidden">
    <symbol fill="none" xmlns="http://www.w3.org/2000/svg" viewBox="0 0 18 20" id="city-icon">
        <path d="M16.08 8.364C16.08 14.09 8.54 19 8.54 19S1 14.09 1 8.364c0-1.953.794-3.826 2.208-5.207A7.633 7.633 0 018.54 1c2 0 3.918.776 5.332 2.157a7.277 7.277 0 012.208 5.207z"
              stroke="#999" stroke-width="2" stroke-linecap="round" stroke-linejoin="round"/>
        <path d="M8.54 10.818c1.388 0 2.514-1.099 2.514-2.454 0-1.356-1.126-2.455-2.514-2.455S6.027 7.008 6.027 8.364c0 1.355 1.125 2.454 2.513 2.454z"
              stroke="#999" stroke-width="2" stroke-linecap="round" stroke-linejoin="round"/>
    </symbol>
    <symbol fill="none" xmlns="http://www.w3.org/2000/svg" viewBox="0 0 10 20" id="left-arrow">
        <path d="M9 1l-8 9 8 9" stroke="#EEE" stroke-width="2" stroke-linecap="round" stroke-linejoin="round"/>
    </symbol>
    <symbol fill="none" xmlns="http://www.w3.org/2000/svg" viewBox="0 0 10 20" id="right-arrow">
        <path d="M1 1l8 9-8 9" stroke="#EEE" stroke-width="2" stroke-linecap="round" stroke-linejoin="round"/>
    </symbol>
    <svg width="0" height="0" class="hidden">
        <symbol fill="none" xmlns="http://www.w3.org/2000/svg" viewBox="0 0 32 32" id="facebook">
            <path d="M32 16c0-8.838-7.163-16-16-16C7.162 0 0 7.162 0 16c0 7.988 5.85 14.606 13.5 15.806V20.625H9.437V16H13.5v-3.525c0-4.01 2.387-6.225 6.044-6.225 1.75 0 3.581.313 3.581.313V10.5h-2.019c-1.987 0-2.606 1.234-2.606 2.5v3h4.438l-.71 4.625H18.5v11.181C26.15 30.606 32 23.987 32 16z"
                  fill="#fff"/>
        </symbol>
    </svg>
    <svg width="0" height="0" class="hidden">
        <symbol fill="none" xmlns="http://www.w3.org/2000/svg" viewBox="0 0 6 8" id="next-arrow">
            <path d="M0 0l6 4.03L0 8V0z" fill="#999"/>
        </symbol>
    </svg>
</svg>